<?xml version="1.0" standalone="no"?>
<!DOCTYPE svg PUBLIC "-//W3C//DTD SVG 20010904//EN"
 "http://www.w3.org/TR/2001/REC-SVG-20010904/DTD/svg10.dtd">
<svg version="1.0" xmlns="http://www.w3.org/2000/svg"
 width="214.000000pt" height="155.000000pt" viewBox="0 0 214.000000 155.000000"
 preserveAspectRatio="xMidYMid meet">

<g transform="translate(0.000000,155.000000) scale(0.100000,-0.100000)"
fill="#000000" stroke="none">
<path d="M1159 1270 c-22 -19 -22 -20 -2 -11 31 16 33 14 33 -21 0 -70 -7 -78
-64 -78 -53 0 -86 -15 -156 -70 -25 -20 -55 -31 -110 -39 -109 -18 -174 -38
-195 -61 -15 -16 -16 -27 -9 -62 8 -39 12 -43 41 -46 28 -3 32 0 38 27 9 42
49 71 95 71 30 0 44 -6 64 -31 14 -17 26 -39 26 -50 0 -17 8 -19 65 -19 57 0
64 -2 59 -17 -10 -31 32 27 78 106 97 169 133 312 82 319 -11 2 -32 -7 -45
-18z m-11 -175 l-22 -45 -84 0 c-54 0 -81 4 -77 10 4 6 30 26 58 45 41 28 62
35 99 35 l48 0 -22 -45z m-402 -110 c-26 -24 -76 -35 -76 -16 0 19 38 37 84
40 16 1 15 -3 -8 -24z"/>
<path d="M1230 1156 c0 -28 -81 -194 -128 -263 -23 -33 -55 -72 -72 -87 -33
-27 -70 -35 -70 -14 0 6 -3 9 -6 6 -3 -4 -1 -16 6 -27 19 -36 50 -25 116 42
l63 64 108 -5 108 -4 59 61 c57 60 67 83 29 63 -10 -5 -24 -7 -30 -5 -18 7
-16 42 2 50 22 8 33 -6 15 -18 -12 -8 -10 -9 6 -4 30 8 73 -14 80 -41 9 -34
-4 -46 -41 -42 -19 2 -31 0 -29 -4 9 -14 61 -9 74 7 17 20 4 63 -23 77 -12 6
-45 38 -73 72 l-50 61 -64 3 c-36 2 -68 8 -72 15 -5 8 -8 6 -8 -7z"/>
<path d="M775 945 c-31 -30 -33 -77 -5 -105 31 -31 85 -30 113 2 26 31 22 82
-9 107 -35 28 -69 26 -99 -4z m79 -21 c19 -18 21 -45 4 -62 -39 -39 -100 17
-63 58 22 24 38 25 59 4z"/>
<path d="M513 663 c-12 -2 -34 -18 -48 -34 -20 -25 -25 -41 -25 -86 0 -47 4
-59 29 -84 37 -37 94 -40 136 -7 24 19 25 22 10 30 -11 7 -22 5 -34 -6 -56
-51 -128 27 -101 109 15 45 71 63 107 33 8 -6 18 -6 29 0 15 9 15 11 -7 25
-29 18 -66 25 -96 20z"/>
<path d="M1018 649 c-23 -13 -23 -62 -2 -80 9 -8 35 -21 57 -29 49 -18 66 -42
48 -64 -17 -21 -60 -20 -90 0 -35 25 -49 2 -15 -25 57 -45 144 -16 144 48 0
35 -11 44 -75 68 -53 20 -68 45 -37 62 13 7 30 7 55 -1 43 -13 59 -4 31 17
-22 17 -91 19 -116 4z"/>
<path d="M1200 545 c0 -96 3 -115 15 -115 11 0 15 12 15 48 0 73 8 92 39 92
40 0 51 -18 51 -82 0 -45 3 -58 15 -58 21 0 21 117 -1 148 -17 25 -71 31 -92
10 -9 -9 -12 -3 -12 30 0 31 -4 42 -15 42 -12 0 -15 -19 -15 -115z"/>
<path d="M677 593 c-18 -18 -3 -28 40 -28 34 0 48 -4 51 -15 2 -11 -8 -15 -42
-15 -50 0 -76 -18 -76 -51 0 -39 25 -54 91 -52 l59 2 0 71 c0 42 -5 76 -12 83
-13 13 -100 17 -111 5z m88 -108 c0 -16 -8 -21 -37 -23 -32 -3 -38 0 -38 16 0
27 10 33 45 30 22 -2 30 -8 30 -23z"/>
<path d="M840 513 c0 -75 2 -84 18 -81 13 3 17 14 18 56 2 71 8 82 44 82 20 0
30 5 30 15 0 11 -13 14 -55 14 l-55 -1 0 -85z"/>
<path d="M1410 582 c-34 -27 -34 -106 -1 -133 34 -28 86 -25 118 7 22 22 25
32 20 67 -7 50 -36 77 -82 77 -18 0 -43 -8 -55 -18z m98 -37 c8 -17 8 -33 1
-55 -9 -24 -17 -30 -40 -30 -42 0 -66 39 -49 80 10 25 18 30 45 30 24 0 34 -6
43 -25z"/>
<path d="M1580 483 c0 -62 4 -113 9 -113 15 0 28 24 26 47 -1 21 2 22 34 17
55 -9 86 20 86 79 0 67 -23 87 -96 85 l-59 -2 0 -113z m119 57 c15 -43 -3 -80
-39 -80 -37 0 -46 13 -42 65 4 44 5 45 37 45 28 0 35 -5 44 -30z"/>
<path d="M793 355 c0 -22 2 -30 4 -17 2 12 2 30 0 40 -3 9 -5 -1 -4 -23z"/>
<path d="M956 357 c3 -10 9 -15 12 -12 3 3 0 11 -7 18 -10 9 -11 8 -5 -6z"/>
<path d="M821 344 c0 -11 3 -14 6 -6 3 7 2 16 -1 19 -3 4 -6 -2 -5 -13z"/>
<path d="M1442 340 c0 -14 2 -19 5 -12 2 6 2 18 0 25 -3 6 -5 1 -5 -13z"/>
<path d="M1491 344 c0 -11 3 -14 6 -6 3 7 2 16 -1 19 -3 4 -6 -2 -5 -13z"/>
<path d="M1080 341 c0 -6 4 -13 10 -16 6 -3 7 1 4 9 -7 18 -14 21 -14 7z"/>
<path d="M1236 337 c3 -10 9 -15 12 -12 3 3 0 11 -7 18 -10 9 -11 8 -5 -6z"/>
</g>
</svg>
